<svg enable-background="new 0 0 575.284 575.284" height="575.284" viewBox="0 0 575.284 575.284" width="575.284" xmlns="http://www.w3.org/2000/svg"><path d="m561.997 130.569-110.504-36.303c-.012-.012-.023-.012-.049-.012h.012s-1.762-.673-4.246-.416c-2.484.269-4.236 1.554-4.236 1.554l-61.945 40.454c-2.803 1.824-4.492 4.945-4.492 8.311v110.809l-3.428-.257v-178.999c0-4.296-2.754-8.091-6.818-9.425l-200.32-65.802s-2.313-.734-4.456-.392c-2.57.416-4.443 1.775-4.443 1.775l-146.427 104.432c-2.619 1.86-4.174 4.859-4.174 8.078v370.726c0 3.623 1.983 6.952 5.153 8.69l146.476 80.27s1.518.894 3.599 1.15c2.081.245 3.599-.208 3.599-.208l200.32-50.575 85.215-21.506 110.479-27.896c4.393-1.102 7.479-5.067 7.479-9.608l.023-325.412c.013-4.309-2.755-8.103-6.817-9.438zm-525.636 307.702c0 1.077-.526 2.094-1.408 2.705-.563.393-1.224.601-1.885.601-.392 0-.771-.062-1.151-.208l-8.556-3.146c-1.297-.477-2.167-1.726-2.167-3.108v-27.21c0-1.028.49-2.007 1.297-2.632.82-.636 1.897-.832 2.889-.562l8.556 2.374c1.42.404 2.412 1.714 2.412 3.195v27.992h.013zm0-55.973c0 .979-.429 1.909-1.2 2.546-.6.489-1.334.759-2.105.759-.208 0-.404-.024-.612-.062l-8.556-1.604c-1.567-.294-2.705-1.665-2.705-3.256v-27.221c0-.93.392-1.812 1.089-2.448.698-.624 1.616-.93 2.546-.832l8.556.832c1.689.172 2.975 1.592 2.975 3.293v27.993zm0-55.962c0 .882-.343 1.738-.967 2.351-.624.611-1.457.954-2.325.954-.012 0-.024 0-.024 0l-8.556-.061c-1.812-.024-3.292-1.493-3.292-3.317v-27.21c0-1.726 1.322-3.157 3.036-3.292l8.556-.71c.93-.086 1.824.232 2.509.856.686.637 1.065 1.506 1.065 2.436v27.993zm0-55.961c0 1.604-1.163 2.974-2.742 3.256l-8.556 1.481c-.196.037-.379.049-.563.049-.783 0-1.53-.269-2.129-.771-.747-.637-1.188-1.555-1.188-2.546v-27.209c0-1.506 1.016-2.803 2.46-3.195l8.556-2.264c1.003-.257 2.056-.037 2.864.587s1.273 1.591 1.273 2.619v27.993zm0-55.961c0 1.396-.881 2.656-2.203 3.121l-8.556 3.023c-.354.123-.722.184-1.102.184-.685 0-1.346-.208-1.909-.6-.869-.625-1.396-1.628-1.396-2.705v-27.222c0-1.297.771-2.484 1.971-3.023l8.556-3.794c1.016-.453 2.203-.355 3.146.257.93.625 1.493 1.665 1.493 2.779zm0-55.962c0 1.236-.673 2.338-1.75 2.926l-8.556 4.553c-.49.257-1.028.392-1.555.392-.6 0-1.187-.171-1.713-.478-.992-.6-1.604-1.665-1.604-2.828v-27.209c0-1.15.587-2.215 1.555-2.803l8.556-5.336c1.028-.637 2.301-.673 3.354-.086s1.702 1.689 1.702 2.889v27.98zm28.85 290.431c0 1.077-.526 2.093-1.408 2.705-.563.392-1.236.6-1.897.6-.379 0-.759-.061-1.139-.208l-10.196-3.758c-1.297-.477-2.167-1.713-2.167-3.097v-29.669c0-1.028.478-1.995 1.297-2.632.82-.624 1.885-.82 2.889-.551l10.184 2.84c1.432.392 2.423 1.701 2.423 3.182v30.588zm0-61.163c0 .979-.44 1.909-1.2 2.546-.6.489-1.346.759-2.117.759-.208 0-.404-.024-.612-.062l-10.184-1.909c-1.567-.294-2.705-1.664-2.705-3.256v-29.657c0-.931.392-1.824 1.089-2.448.71-.624 1.628-.93 2.546-.845l10.196.992c1.702.171 2.987 1.591 2.987 3.305zm0-61.152c0 .869-.343 1.727-.979 2.338-.625.612-1.457.955-2.326.955 0 0-.012 0-.024 0l-10.184-.073c-1.812-.013-3.292-1.493-3.292-3.317v-29.646c0-1.726 1.31-3.157 3.036-3.305l10.196-.832c.918-.086 1.824.232 2.509.856s1.065 1.506 1.065 2.424v30.6zm0-61.175c0 1.616-1.163 2.987-2.742 3.268l-10.196 1.75c-.196.037-.38.049-.563.049-.771 0-1.53-.281-2.142-.783-.747-.637-1.175-1.555-1.175-2.534v-29.658c0-1.505 1.016-2.815 2.46-3.207l10.196-2.681c.991-.257 2.056-.049 2.852.587.808.625 1.285 1.591 1.285 2.62v30.587h.025zm0-61.163c0 1.408-.881 2.656-2.215 3.121l-10.184 3.599c-.355.135-.734.196-1.102.196-.685 0-1.346-.208-1.909-.612-.881-.625-1.396-1.628-1.396-2.705v-29.658c0-1.297.759-2.497 1.971-3.023l10.184-4.517c1.028-.44 2.216-.354 3.146.245.942.612 1.505 1.665 1.505 2.778zm0-61.151c0 1.224-.673 2.337-1.75 2.913l-10.184 5.435c-.49.257-1.028.379-1.554.379-.6 0-1.188-.159-1.714-.465-.991-.6-1.604-1.677-1.604-2.827v-29.658c0-1.138.588-2.203 1.555-2.815l10.196-6.353c1.028-.636 2.301-.673 3.354-.085 1.052.587 1.701 1.689 1.701 2.889zm34.762 318.582c0 1.09-.526 2.105-1.408 2.718-.563.392-1.236.6-1.885.6-.392 0-.771-.073-1.151-.208l-12.35-4.541c-1.297-.478-2.167-1.726-2.167-3.109v-32.595c0-1.028.478-2.008 1.297-2.632.808-.624 1.885-.82 2.876-.551l12.362 3.428c1.42.392 2.412 1.701 2.412 3.182v33.709h.014zm0-67.418c0 .979-.441 1.91-1.2 2.547-.6.489-1.346.759-2.105.759-.208 0-.416-.024-.612-.062l-12.362-2.313c-1.568-.294-2.694-1.665-2.694-3.256v-32.595c0-.931.392-1.824 1.077-2.448.698-.624 1.628-.931 2.546-.845l12.35 1.212c1.702.171 2.987 1.591 2.987 3.305v33.696zm0-67.43c0 .881-.343 1.738-.979 2.35-.612.612-1.457.955-2.313.955-.013 0-.025 0-.037 0l-12.35-.098c-1.812-.013-3.268-1.481-3.268-3.305v-32.62c0-1.713 1.31-3.146 3.023-3.28l12.362-1.016c.918-.086 1.824.232 2.509.856.686.625 1.065 1.506 1.065 2.424v33.733h-.012zm0-67.417c0 1.604-1.163 2.987-2.742 3.256l-12.363 2.142c-.184.037-.367.049-.563.049-.771 0-1.53-.269-2.129-.771-.747-.637-1.175-1.555-1.175-2.534v-32.595c0-1.505 1.004-2.803 2.46-3.194l12.35-3.256c.991-.257 2.056-.049 2.852.587.808.624 1.297 1.591 1.297 2.619v33.697zm0-67.431c0 1.408-.881 2.656-2.203 3.121l-12.363 4.358c-.355.122-.722.196-1.102.196-.673 0-1.334-.221-1.909-.612-.869-.624-1.383-1.628-1.383-2.705v-32.595c0-1.322.759-2.497 1.958-3.023l12.35-5.471c1.028-.453 2.215-.355 3.146.245.943.612 1.506 1.665 1.506 2.778zm0-67.418c0 1.224-.673 2.338-1.75 2.913l-12.362 6.585c-.49.257-1.016.379-1.555.379-.587 0-1.187-.159-1.701-.465-.992-.6-1.604-1.677-1.604-2.827v-32.607c0-1.139.587-2.203 1.555-2.803l12.35-7.699c1.04-.625 2.313-.661 3.366-.074 1.053.576 1.702 1.689 1.702 2.889v33.709zm42.693 352.818c0 1.09-.526 2.105-1.408 2.718-.575.392-1.236.6-1.897.6-.379 0-.759-.073-1.138-.208l-15.276-5.618c-1.297-.478-2.167-1.726-2.167-3.109v-36.182c0-1.027.478-1.994 1.298-2.631.82-.625 1.885-.82 2.876-.551l15.276 4.247c1.432.392 2.423 1.701 2.423 3.183v37.552h.013zm0-75.116c0 .991-.44 1.921-1.199 2.546-.6.501-1.347.759-2.118.759-.208 0-.404-.024-.612-.062l-15.276-2.864c-1.554-.281-2.693-1.652-2.693-3.256v-36.169c0-.931.392-1.824 1.089-2.448.686-.637 1.616-.93 2.534-.845l15.276 1.493c1.701.172 2.986 1.592 2.986 3.293v37.553zm0-75.105c0 .882-.343 1.738-.979 2.351-.625.612-1.457.955-2.326.955 0 0-.012 0-.024 0l-15.275-.123c-1.812-.012-3.281-1.48-3.281-3.305v-36.193c0-1.727 1.31-3.158 3.036-3.306l15.263-1.248c.943-.085 1.836.221 2.521.856.673.625 1.065 1.506 1.065 2.424zm0-75.129c0 1.616-1.163 2.987-2.754 3.269l-15.263 2.631c-.196.037-.379.049-.575.049-.759 0-1.53-.257-2.13-.771-.747-.624-1.175-1.555-1.175-2.521v-36.182c0-1.506 1.004-2.815 2.46-3.207l15.275-4.002c.992-.257 2.044-.049 2.852.575.808.637 1.297 1.591 1.297 2.619v37.54zm0-75.105c0 1.396-.881 2.656-2.215 3.121l-15.275 5.386c-.355.123-.734.196-1.102.196-.673 0-1.334-.22-1.897-.612-.881-.625-1.396-1.628-1.396-2.705v-36.182c0-1.297.759-2.497 1.958-3.023l15.276-6.769c1.028-.453 2.215-.355 3.146.245.942.612 1.505 1.665 1.505 2.778zm0-75.117c0 1.224-.673 2.338-1.762 2.913l-15.276 8.14c-.477.257-1.016.392-1.554.392-.588 0-1.175-.159-1.702-.478-.991-.6-1.604-1.677-1.604-2.827v-36.194c0-1.138.588-2.203 1.555-2.815l15.275-9.51c1.016-.636 2.313-.673 3.354-.085 1.04.587 1.701 1.689 1.701 2.889v37.577h.013zm81.139 374.459c0 1.615-1.175 2.986-2.766 3.268l-35.251 5.974c-.196.024-.367.049-.551.049-.771 0-1.542-.27-2.142-.783-.747-.625-1.175-1.543-1.175-2.521v-38.752c0-1.665 1.236-3.061 2.876-3.269l35.263-4.504c.93-.135 1.885.171 2.607.783.722.637 1.126 1.53 1.126 2.484v37.271zm0-74.566c0 1.714-1.31 3.146-3.023 3.28l-35.263 3.048c-.098.013-.196.013-.282.013-.82 0-1.628-.294-2.24-.857-.686-.637-1.077-1.518-1.077-2.436v-38.446c0-1.774 1.383-3.231 3.158-3.305l35.264-1.604c.918-.049 1.774.282 2.423.906.661.624 1.028 1.493 1.028 2.387v37.014zm0-74.567c0 1.824-1.481 3.306-3.305 3.317l-35.251.122c-.012 0-.012 0-.012 0-.881 0-1.726-.343-2.338-.967-.624-.612-.967-1.456-.967-2.325v-38.765c0-.894.367-1.75 1.016-2.374.649-.625 1.518-.955 2.412-.918l35.263 1.334c1.775.061 3.183 1.518 3.183 3.293v37.283zm0-74.578c0 .918-.379 1.812-1.065 2.424-.625.563-1.42.881-2.252.881-.086 0-.171-.012-.257-.012l-35.251-2.803c-1.726-.135-3.048-1.567-3.048-3.305v-38.74c0-.942.404-1.848 1.114-2.473.71-.636 1.652-.93 2.595-.808l35.251 4.272c1.665.208 2.913 1.616 2.913 3.28zm0-74.566c0 .979-.429 1.897-1.175 2.521-.6.514-1.358.795-2.142.795-.184 0-.343-.012-.526-.037l-35.264-5.741c-1.604-.257-2.778-1.64-2.778-3.268v-38.739c0-1.004.44-1.934 1.224-2.571.759-.624 1.762-.869 2.754-.685l35.251 7.197c1.542.318 2.656 1.677 2.656 3.244zm0-74.566c0 1.016-.465 1.971-1.273 2.607-.587.453-1.322.71-2.044.71-.257 0-.526-.037-.784-.098l-35.251-8.653c-1.481-.367-2.521-1.702-2.521-3.219v-38.765c0-1.041.49-2.007 1.31-2.644.833-.625 1.897-.82 2.901-.539l35.251 10.123c1.419.404 2.399 1.702 2.399 3.183v37.295zm63.085 362.157c0 1.615-1.175 2.986-2.766 3.268l-30.392 5.153c-.184.024-.367.037-.551.037-.771 0-1.53-.258-2.13-.771-.747-.624-1.187-1.555-1.187-2.521v-35.937c0-1.665 1.236-3.072 2.888-3.28l30.392-3.893c.942-.122 1.885.184 2.607.796.71.636 1.126 1.529 1.126 2.484v34.664zm0-69.327c0 1.713-1.31 3.146-3.023 3.28l-30.392 2.631c-.098.013-.196.013-.282.013-.82 0-1.628-.306-2.24-.869-.686-.624-1.077-1.506-1.077-2.436v-35.912c0-1.775 1.395-3.231 3.17-3.317l30.392-1.358c.881-.062 1.787.281 2.423.905.661.637 1.028 1.493 1.028 2.387v34.676zm0-69.34c0 1.812-1.481 3.305-3.305 3.316l-30.392.099h-.012c-.869 0-1.714-.331-2.338-.955s-.979-1.469-.979-2.338v-35.949c0-.894.367-1.762 1.016-2.374.649-.625 1.53-.968 2.424-.918l30.379 1.15c1.787.073 3.195 1.53 3.195 3.317v34.651h.012zm0-69.339c0 .918-.392 1.799-1.065 2.423-.625.563-1.42.869-2.252.869-.085 0-.184 0-.269-.012l-30.392-2.411c-1.726-.135-3.047-1.567-3.047-3.305v-35.9c0-.955.404-1.849 1.126-2.473.71-.637 1.64-.93 2.583-.808l30.392 3.685c1.665.208 2.913 1.604 2.913 3.28v34.651h.011zm0-69.34c0 .967-.429 1.885-1.175 2.521-.6.514-1.358.784-2.142.784-.184 0-.354-.012-.526-.049l-30.392-4.933c-1.604-.257-2.791-1.652-2.791-3.268v-35.937c0-.992.453-1.934 1.224-2.558.759-.624 1.787-.881 2.754-.686l30.392 6.206c1.542.306 2.656 1.665 2.656 3.244zm0-69.327c0 1.016-.465 1.971-1.261 2.595-.6.465-1.322.71-2.044.71-.27 0-.526-.024-.796-.098l-30.392-7.454c-1.481-.355-2.521-1.689-2.521-3.219v-35.925c0-1.041.489-2.02 1.322-2.644.82-.624 1.897-.82 2.889-.539l30.392 8.727c1.419.404 2.399 1.702 2.399 3.183v34.664zm54.81 337.383c0 1.615-1.162 2.986-2.754 3.268l-26.475 4.479c-.195.037-.367.05-.562.05-.76 0-1.531-.27-2.131-.771-.746-.637-1.174-1.555-1.174-2.533v-33.489c0-1.664 1.236-3.06 2.875-3.28l26.477-3.378c.941-.123 1.885.171 2.605.783.723.637 1.127 1.542 1.127 2.484v32.388h.012zm0-64.787c0 1.727-1.309 3.146-3.023 3.293l-26.475 2.289c-.098.012-.195.012-.293.012-.82 0-1.617-.306-2.24-.869-.686-.624-1.064-1.505-1.064-2.423v-33.489c0-1.762 1.383-3.23 3.158-3.305l26.475-1.188c.893-.049 1.787.282 2.424.906.66.624 1.027 1.493 1.027 2.387v32.387zm0-64.786c0 1.824-1.469 3.293-3.305 3.317l-26.475.086s0 0-.012 0c-.869 0-1.715-.343-2.326-.955-.625-.624-.967-1.469-.967-2.338v-33.501c0-.894.355-1.763 1.016-2.374.648-.625 1.506-.955 2.412-.918l26.475 1.003c1.762.062 3.182 1.53 3.182 3.293zm0-64.786c0 .918-.379 1.812-1.064 2.436-.611.563-1.408.869-2.252.869-.086 0-.172 0-.258-.012l-26.475-2.105c-1.713-.147-3.035-1.579-3.035-3.293v-33.488c0-.942.404-1.836 1.113-2.473.711-.624 1.652-.918 2.596-.795l26.463 3.207c1.664.196 2.912 1.604 2.912 3.28zm0-64.786c0 .979-.428 1.897-1.162 2.521-.611.514-1.371.783-2.154.783-.172 0-.342-.012-.525-.049l-26.477-4.309c-1.604-.257-2.777-1.64-2.777-3.268v-33.477c0-1.003.439-1.934 1.211-2.57.783-.625 1.787-.869 2.766-.673l26.477 5.386c1.529.318 2.643 1.677 2.643 3.244v32.412zm0-64.787c0 1.016-.465 1.983-1.271 2.607-.588.465-1.299.71-2.045.71-.258 0-.525-.037-.783-.098l-26.475-6.5c-1.469-.355-2.51-1.689-2.51-3.207v-33.5c0-1.041.49-2.02 1.309-2.644.82-.612 1.898-.82 2.902-.539l26.475 7.613c1.408.404 2.387 1.701 2.387 3.183v32.375zm110.002 360.958c0 1.518-1.029 2.828-2.498 3.207l-85.215 21.518c-.256.062-.537.099-.795.099-.734 0-1.445-.245-2.031-.698-.809-.637-1.273-1.591-1.273-2.619v-188.179c0-.33.514-34.737 48.617-32.926 42.717 1.592 43.207 32.313 43.207 32.632v166.966zm35.789-61.714c0 1.615-1.176 2.986-2.754 3.256l-17.393 2.95c-.195.036-.367.049-.562.049-.771 0-1.531-.27-2.131-.771-.746-.648-1.176-1.566-1.176-2.546v-27.062c0-1.665 1.236-3.072 2.877-3.28l17.406-2.24c.941-.122 1.885.184 2.607.796.709.637 1.125 1.53 1.125 2.484v26.364zm0-52.693c0 1.714-1.309 3.146-3.023 3.28l-17.404 1.506c-.098.012-.197.012-.281.012-.82 0-1.617-.306-2.24-.856-.686-.637-1.066-1.518-1.066-2.436v-27.075c0-1.763 1.385-3.219 3.158-3.292l17.406-.784c.893-.061 1.787.282 2.424.906.66.624 1.027 1.481 1.027 2.387v26.352zm0-52.902c0 1.824-1.48 3.305-3.293 3.305l-17.404.062s0 0-.012 0c-.869 0-1.715-.343-2.326-.967-.625-.624-.967-1.457-.967-2.338v-26.843c0-.894.354-1.75 1.004-2.387.648-.624 1.518-.954 2.424-.918l17.393.674c1.773.061 3.193 1.518 3.193 3.305v26.107zm0-52.485c0 .918-.391 1.812-1.064 2.423-.625.576-1.42.881-2.252.881-.086 0-.184-.012-.258-.012l-17.404-1.383c-1.715-.135-3.037-1.567-3.037-3.305v-27.062c0-.942.404-1.836 1.115-2.473.709-.624 1.652-.93 2.582-.795l17.406 2.105c1.664.196 2.912 1.603 2.912 3.28zm0-52.681c0 .967-.428 1.885-1.176 2.521-.6.514-1.357.784-2.141.784-.184 0-.355-.012-.527-.049l-17.404-2.815c-1.604-.257-2.779-1.652-2.779-3.268v-27.075c0-.991.441-1.921 1.213-2.558.77-.624 1.787-.869 2.766-.685l17.393 3.549c1.543.318 2.656 1.677 2.656 3.244v26.352zm0-52.693c0 1.016-.465 1.983-1.26 2.607-.6.465-1.311.71-2.045.71-.258 0-.525-.024-.783-.098l-17.418-4.272c-1.469-.367-2.51-1.702-2.51-3.219v-27.062c0-1.041.479-2.02 1.322-2.644.82-.624 1.898-.82 2.902-.539l17.393 4.994c1.42.404 2.398 1.701 2.398 3.182v26.341zm32.154 257.995c0 1.615-1.174 2.986-2.766 3.256l-15.654 2.668c-.184.024-.367.037-.551.037-.771 0-1.531-.257-2.143-.771-.746-.624-1.176-1.555-1.176-2.521v-25.668c0-1.665 1.248-3.072 2.889-3.28l15.656-2.008c.941-.122 1.885.172 2.605.809.723.624 1.127 1.529 1.127 2.472v25.007h.013zm0-50.013c0 1.726-1.309 3.146-3.023 3.305l-15.654 1.347c-.098.012-.195.012-.281.012-.82 0-1.629-.306-2.24-.868-.686-.625-1.078-1.506-1.078-2.437v-25.655c0-1.774 1.396-3.23 3.172-3.305l15.654-.71c.893-.049 1.787.282 2.424.906.66.624 1.027 1.481 1.027 2.387v25.018zm0-50.012c0 1.812-1.48 3.305-3.305 3.305l-15.654.062h-.012c-.869 0-1.715-.343-2.326-.967-.625-.625-.98-1.457-.98-2.338v-25.668c0-.918.367-1.774 1.018-2.398.648-.624 1.518-.955 2.41-.918l15.668.6c1.773.073 3.182 1.53 3.182 3.305v25.017zm0-50.038c0 .918-.379 1.812-1.064 2.424-.611.575-1.42.881-2.252.881-.086 0-.172-.012-.258-.012l-15.654-1.236c-1.727-.147-3.049-1.579-3.049-3.305v-25.667c0-.943.404-1.836 1.127-2.473.709-.624 1.652-.918 2.582-.795l15.656 1.885c1.664.208 2.912 1.616 2.912 3.28zm0-50.024c0 .979-.428 1.897-1.174 2.521-.602.514-1.359.795-2.143.795-.184 0-.344-.012-.527-.037l-15.654-2.546c-1.604-.257-2.791-1.652-2.791-3.268v-25.667c0-.992.453-1.934 1.225-2.559.758-.636 1.775-.881 2.754-.685l15.654 3.194c1.543.306 2.656 1.677 2.656 3.244zm0-50.013c0 1.016-.465 1.971-1.273 2.607-.586.453-1.309.698-2.043.698-.258 0-.527-.025-.795-.098l-15.645-3.831c-1.48-.355-2.521-1.689-2.521-3.219v-25.656c0-1.04.49-2.02 1.322-2.644.82-.637 1.898-.82 2.889-.539l15.656 4.492c1.42.404 2.398 1.701 2.398 3.182v25.006h.012zm29.059 245.179c0 1.616-1.176 2.987-2.768 3.269l-14.16 2.387c-.197.037-.367.049-.551.049-.783 0-1.543-.257-2.143-.771-.746-.636-1.176-1.554-1.176-2.521v-24.395c0-1.665 1.236-3.072 2.889-3.28l14.162-1.812c.943-.123 1.885.171 2.607.795.723.625 1.127 1.53 1.127 2.485v23.794zm0-47.613c0 1.726-1.311 3.146-3.023 3.305l-14.174 1.225c-.086.012-.184.012-.27.012-.82 0-1.629-.306-2.24-.869-.686-.624-1.076-1.506-1.076-2.436v-24.395c0-1.774 1.383-3.231 3.156-3.305l14.176-.648c.881-.049 1.773.294 2.422.918.662.624 1.029 1.48 1.029 2.387zm0-47.602c0 1.824-1.482 3.305-3.305 3.317l-14.162.049c-.012 0-.012 0-.012 0-.869 0-1.727-.343-2.338-.967-.625-.624-.967-1.457-.967-2.338v-24.382c0-.906.367-1.763 1.016-2.399.648-.624 1.506-.955 2.41-.918l14.174.538c1.775.074 3.184 1.53 3.184 3.317zm0-47.613c0 .93-.393 1.799-1.064 2.436-.625.563-1.42.869-2.254.869-.084 0-.184 0-.256-.012l-14.162-1.126c-1.727-.147-3.047-1.579-3.047-3.305v-24.395c0-.942.402-1.836 1.113-2.473.709-.624 1.652-.918 2.594-.808l14.162 1.713c1.666.208 2.914 1.616 2.914 3.28zm0-47.602c0 .967-.43 1.885-1.176 2.509-.6.514-1.357.783-2.143.783-.184 0-.354-.012-.525-.037l-14.174-2.301c-1.604-.257-2.766-1.653-2.766-3.269v-24.394c0-.992.439-1.922 1.223-2.558.771-.625 1.787-.869 2.754-.686l14.162 2.889c1.543.306 2.656 1.677 2.656 3.244v23.819h-.011zm0-47.613c0 1.016-.465 1.971-1.273 2.595-.588.465-1.311.71-2.045.71-.256 0-.525-.024-.783-.098l-14.16-3.476c-1.482-.355-2.521-1.689-2.521-3.207v-24.394c0-1.041.488-2.02 1.309-2.644.832-.624 1.91-.82 2.9-.539l14.162 4.064c1.42.404 2.398 1.713 2.398 3.182v23.807z"/></svg>